# xmcd CD database file
#
# Track frame offsets:
#	150
#	10155
#	18255
#	28937
#	42392
#	53265
#	66585
#	79265
#	86910
#	100502
#	109472
#	122997
#	132477
#	146112
#	156572
#	165892
#
# Disc length: 2346 seconds
#
# Revision: 8
# Processed by: cddbd v1.5.2PL0 Copyright (c) Steve Scherf et al.
# Submitted via: CDex 1.70beta2
#
DISCID=dd092810
DTITLE=Various Artist - The Greatest Country and Western Songs [CD 1_3)
DYEAR=1988
DGENRE=Country
TTITLE0=Dave Dudley - Oh Lonesome Me
TTITLE1=Johnny Cash - Country Boy
TTITLE2=Patsy Cline - I Can See An Angel
TTITLE3=T. Texas Tylar - Courtin' In The Rain
TTITLE4=Hank Locklin - Send Me The Pillow That You Dream On
TTITLE5=Patti Page - Tennessee Waltz
TTITLE6=George Jones - I Love You Because
TTITLE7=Roger Miller - Do Waka Do
TTITLE8=Lynn Anderson - Rose Garden
TTITLE9=Quinn Brothers - Kiss An Angel Good Morning
TTITLE10=Jimmy Dean - Big Bad John
TTITLE11=Skeeter Davis  - Am I That Easy To Forget
TTITLE12=Carl Perkins - Every Road
TTITLE13=Jimmie Rodgers - Kisses Sweeter Than Wine
TTITLE14=Jeannie C. Riley - The Girl Most Likely
TTITLE15=Floyd Tillman - Slippin' Around
EXTD=YEAR: 1988
EXTT0=
EXTT1=
EXTT2=
EXTT3=
EXTT4=
EXTT5=
EXTT6=
EXTT7=
EXTT8=
EXTT9=
EXTT10=
EXTT11=
EXTT12=
EXTT13=
EXTT14=
EXTT15=
PLAYORDER=
